<svg width="32" height="32" viewBox="0 0 32 32" fill="none" xmlns="http://www.w3.org/2000/svg">
<path d="M16.0002 14.5039C12.389 14.5039 9.45044 17.442 9.45044 21.0537C9.45044 24.6653 12.389 27.6034 16.0002 27.6034C19.6114 27.6034 22.55 24.6652 22.55 21.0537C22.55 17.4421 19.6114 14.5039 16.0002 14.5039ZM15.5791 20.2116H16.4213C17.5825 20.2116 18.5265 21.1561 18.5265 22.3168C18.5265 23.3334 17.8023 24.1839 16.8423 24.3795V25.2642C16.8423 25.7293 16.4657 26.1063 16.0002 26.1063C15.5347 26.1063 15.1581 25.7293 15.1581 25.2642V24.4221H14.316C13.8505 24.4221 13.4739 24.0451 13.4739 23.58C13.4739 23.115 13.8505 22.7379 14.316 22.7379H16.4213C16.6532 22.7379 16.8423 22.5492 16.8423 22.3168C16.8423 22.0845 16.6532 21.8958 16.4213 21.8958H15.5791C14.4179 21.8958 13.4739 20.9513 13.4739 19.7905C13.4739 18.7739 14.1981 17.9234 15.1581 17.7278V16.8431C15.1581 16.378 15.5347 16.001 16.0002 16.001C16.4657 16.001 16.8423 16.378 16.8423 16.8431V17.6852H17.6844C18.1499 17.6852 18.5265 18.0623 18.5265 18.5273C18.5265 18.9924 18.1499 19.3694 17.6844 19.3694H15.5791C15.3472 19.3694 15.1581 19.5582 15.1581 19.7905C15.1581 20.0228 15.3472 20.2116 15.5791 20.2116Z" fill="white"/>
<circle cx="16" cy="21" r="6" fill="white"/>
<path d="M17.5063 25L13.5833 21.8889V21H15.625C16.1403 21 16.5852 20.8723 16.9597 20.6169C17.3342 20.3615 17.5601 20.0447 17.6375 19.6667H13V18.7778H17.4625C17.2972 18.5185 17.0516 18.3056 16.7258 18.1391C16.3999 17.9726 16.0329 17.8892 15.625 17.8889H13V17H20V17.8889H18.1042C18.2403 18.0148 18.3618 18.1519 18.4688 18.3C18.5757 18.4481 18.6583 18.6074 18.7167 18.7778H20V19.6667H18.8188C18.741 20.2963 18.4007 20.8241 17.7979 21.2502C17.1951 21.6763 16.4708 21.8892 15.625 21.8889H15.2021L19.125 25H17.5063Z" fill="#0280C0"/>
<path d="M16.8431 10.1475V6.7369H21.0536C23.3779 6.7369 25.2642 4.85058 25.2642 2.52634V0.842113C25.2642 0.378959 24.8852 0 24.4221 0H19.3694C17.9883 0 16.7672 0.682112 16.0009 1.70946C15.2346 0.682112 14.0136 0 12.6325 0H7.57981C7.11665 0 6.73769 0.378959 6.73769 0.842113V2.52634C6.73769 4.85058 8.62402 6.7369 10.9483 6.7369H15.1588V10.1475C9.51666 10.5769 5.05347 15.3012 5.05347 21.0528C5.05347 27.0908 9.963 32.0003 16.0009 32.0003C22.0389 32.0003 26.9484 27.0908 26.9484 21.0528C26.9484 15.3012 22.4852 10.5769 16.8431 10.1475ZM16.0009 29.474C11.3609 29.474 7.57981 25.6929 7.57981 21.0528C7.57981 16.4128 11.3609 12.6317 16.0009 12.6317C20.641 12.6317 24.4221 16.4128 24.4221 21.0528C24.4221 25.6929 20.641 29.474 16.0009 29.474Z" fill="white"/>
<path d="M6.49019 10.7012C6.81913 10.3722 6.81913 9.8393 6.49019 9.51035L3.96385 6.98401C3.6349 6.65507 3.10199 6.65507 2.77305 6.98401L0.24671 9.51035C-0.0822366 9.8393 -0.0822366 10.3722 0.24671 10.7012C0.575656 11.0301 1.10856 11.0301 1.43751 10.7012L2.52634 9.61233V14.3163C2.52634 14.7814 2.90299 15.1584 3.36845 15.1584C3.83391 15.1584 4.21056 14.7814 4.21056 14.3163V9.61233L5.29939 10.7012C5.61025 11.012 6.16078 11.0305 6.49019 10.7012Z" fill="white"/>
<path d="M31.7534 9.51035L29.227 6.98401C28.8981 6.65507 28.3652 6.65507 28.0362 6.98401L25.5099 9.51035C25.1809 9.8393 25.1809 10.3722 25.5099 10.7012C25.8388 11.0301 26.3717 11.0301 26.7007 10.7012L27.7895 9.61233V14.3163C27.7895 14.7814 28.1662 15.1584 28.6316 15.1584C29.0971 15.1584 29.4737 14.7814 29.4737 14.3163V9.61233L30.5626 10.7012C30.8805 11.0191 31.4246 11.0299 31.7534 10.7012C32.0823 10.3722 32.0823 9.8393 31.7534 9.51035Z" fill="white"/>
</svg>
