<svg width="36" height="27" viewBox="0 0 36 27" fill="none" xmlns="http://www.w3.org/2000/svg">
<path d="M30.9621 3.00171H5.03986C4.10378 3.00171 3.31171 3.60174 3.02368 4.50179H28.0819C30.098 4.50179 31.6822 6.15188 31.6822 8.25199V23.8528C32.5463 23.5528 33.1223 22.7278 33.1223 21.7527V5.25183C33.1223 3.97676 32.1862 3.00171 30.9621 3.00171Z" fill="white"/>
<path d="M33.8405 0H7.91828C6.98219 0 6.19012 0.600032 5.9021 1.50008H30.9603C32.9765 1.50008 34.5606 3.15017 34.5606 5.25028V20.8511C35.4247 20.5511 36.0007 19.726 36.0007 18.751V2.25012C36.0007 0.975052 35.0646 0 33.8405 0Z" fill="white"/>
<circle cx="15.0007" cy="16.5007" r="6" fill="white"/>
<path d="M16.507 20.5007L12.5841 17.3896V16.5007H14.6257C15.141 16.5007 15.5859 16.373 15.9604 16.1176C16.3349 15.8622 16.5608 15.5455 16.6382 15.1674H12.0007V14.2785H16.4632C16.298 14.0193 16.0524 13.8064 15.7265 13.6398C15.4006 13.4733 15.0337 13.3899 14.6257 13.3896H12.0007V12.5007H19.0007V13.3896H17.1049C17.241 13.5155 17.3625 13.6526 17.4695 13.8007C17.5764 13.9489 17.6591 14.1081 17.7174 14.2785H19.0007V15.1674H17.8195C17.7417 15.797 17.4014 16.3249 16.7986 16.751C16.1959 17.177 15.4716 17.3899 14.6257 17.3896H14.2028L18.1257 20.5007H16.507Z" fill="#0280C0"/>
<path d="M28.0824 6.00098H2.16019C0.936081 6.00098 0 6.97603 0 8.2511V24.752C0 26.027 0.936081 27.0021 2.16019 27.0021H28.0824C29.3065 27.0021 30.2426 26.027 30.2426 24.752V8.2511C30.2426 6.97603 29.3065 6.00098 28.0824 6.00098ZM7.92069 24.0019H5.7605C5.32846 24.0019 5.04044 23.7019 5.04044 23.2519C5.04044 22.4268 4.39238 21.7518 3.60031 21.7518C3.16828 21.7518 2.88025 21.4518 2.88025 21.0018V12.0013C2.88025 11.5513 3.16828 11.2513 3.60031 11.2513C4.39238 11.2513 5.04044 10.5762 5.04044 9.75117C5.04044 9.30115 5.32846 9.00114 5.7605 9.00114H7.92069C8.35273 9.00114 8.64075 9.30115 8.64075 9.75117C8.64075 10.2012 8.35273 10.5012 7.92069 10.5012H6.40856C6.12053 11.5513 5.32846 12.3763 4.32038 12.6763V20.4017C5.32846 20.7018 6.12053 21.5268 6.40856 22.5769H7.92069C8.35273 22.5769 8.64075 22.8769 8.64075 23.3269C8.64075 23.7769 8.35273 24.0019 7.92069 24.0019ZM6.48056 15.0015C6.04853 15.0015 5.7605 14.7014 5.7605 14.2514C5.7605 13.8014 6.04853 13.5014 6.48056 13.5014C6.9126 13.5014 7.20063 13.8014 7.20063 14.2514C7.20063 14.7014 6.9126 15.0015 6.48056 15.0015ZM7.20063 18.7517C7.20063 19.2017 6.9126 19.5017 6.48056 19.5017C6.04853 19.5017 5.7605 19.2017 5.7605 18.7517C5.7605 18.3016 6.04853 18.0016 6.48056 18.0016C6.9126 18.0016 7.20063 18.3016 7.20063 18.7517ZM15.1213 24.0019C11.161 24.0019 7.92069 20.6267 7.92069 16.5015C7.92069 12.3763 11.161 9.00114 15.1213 9.00114C19.0817 9.00114 22.3219 12.3763 22.3219 16.5015C22.3219 20.6267 19.0817 24.0019 15.1213 24.0019ZM27.3624 21.0018C27.3624 21.4518 27.0744 21.7518 26.6423 21.7518C25.8502 21.7518 25.2022 22.4268 25.2022 23.2519C25.2022 23.7019 24.9142 24.0019 24.4821 24.0019H22.3219C21.8899 24.0019 21.6019 23.7019 21.6019 23.2519C21.6019 22.8019 21.8899 22.5018 22.3219 22.5018H23.8341C24.1221 21.4518 24.9142 20.6267 25.9223 20.3267V12.6763C24.9142 12.3763 24.1221 11.5513 23.8341 10.5012H22.3219C21.8899 10.5012 21.6019 10.2012 21.6019 9.75117C21.6019 9.30115 21.8899 9.00114 22.3219 9.00114H24.4821C24.9142 9.00114 25.2022 9.30115 25.2022 9.75117C25.2022 10.5762 25.8502 11.2513 26.6423 11.2513C27.0744 11.2513 27.3624 11.5513 27.3624 12.0013V21.0018ZM23.7621 18.0016C24.1941 18.0016 24.4821 18.3016 24.4821 18.7517C24.4821 19.2017 24.1941 19.5017 23.7621 19.5017C23.33 19.5017 23.042 19.2017 23.042 18.7517C23.042 18.3016 23.33 18.0016 23.7621 18.0016ZM23.042 14.2514C23.042 13.8014 23.33 13.5014 23.7621 13.5014C24.1941 13.5014 24.4821 13.8014 24.4821 14.2514C24.4821 14.7014 24.1941 15.0015 23.7621 15.0015C23.33 15.0015 23.042 14.7014 23.042 14.2514Z" fill="white"/>
</svg>
