<svg width="14" height="20" viewBox="0 0 14 20" fill="none" xmlns="http://www.w3.org/2000/svg">
<path d="M12 20C13.103 20 14 19.103 14 18V2C14 0.897 13.103 0 12 0H2C0.897 0 0 0.897 0 2V18C0 19.103 0.897 20 2 20H12ZM7 15C7.26522 15 7.51957 15.1054 7.70711 15.2929C7.89464 15.4804 8 15.7348 8 16C8 16.2652 7.89464 16.5196 7.70711 16.7071C7.51957 16.8946 7.26522 17 7 17C6.73478 17 6.48043 16.8946 6.29289 16.7071C6.10536 16.5196 6 16.2652 6 16C6 15.7348 6.10536 15.4804 6.29289 15.2929C6.48043 15.1054 6.73478 15 7 15Z" fill="#9A9A9A"/>
</svg>
