<svg width="27" height="31" viewBox="0 0 27 31" fill="none" xmlns="http://www.w3.org/2000/svg">
<path d="M5.2519 5.91263H15.8875L17.0423 3.96783C17.4677 3.29931 17.4069 2.44846 16.8599 1.84071C16.313 1.23296 15.5229 1.05063 14.7936 1.35451L14.4897 1.47606C14.3074 1.53683 14.1251 1.53683 14.0035 1.47606L11.451 0.199783C10.904 -0.104092 10.2355 -0.0433172 9.68848 0.260558L7.74368 1.41528C7.56135 1.53683 7.37903 1.53683 7.19671 1.47606L6.16353 1.11141C5.43423 0.807533 4.64415 1.05063 4.15795 1.65838C3.67175 2.26613 3.61098 3.11698 3.97563 3.78551L5.2519 5.91263Z" fill="white"/>
<circle cx="11.0007" cy="21" r="4" fill="white"/>
<path d="M10.6005 16.2446C7.92643 16.2446 5.73853 18.4325 5.73853 21.1066C5.73853 23.7807 7.92643 25.9686 10.6005 25.9686C13.2746 25.9686 15.4625 23.7807 15.4625 21.1066C15.4625 18.4325 13.2746 16.2446 10.6005 16.2446ZM10.0536 20.1342L11.6337 20.9243C12.1199 21.1674 12.363 21.5928 12.363 22.1398C12.363 22.8691 11.816 23.4161 11.1475 23.4769V24.0846C11.1475 24.4493 10.9044 24.6924 10.5398 24.6924C10.1751 24.6924 9.932 24.4493 9.932 24.0846V23.4769H9.32425C8.9596 23.4769 8.7165 23.2338 8.7165 22.8691C8.7165 22.5045 8.9596 22.2614 9.32425 22.2614H11.026C11.0867 22.2614 11.1475 22.2006 11.1475 22.1398C11.1475 22.079 11.0867 22.0183 11.0867 22.0183L9.50658 21.2282C9.02038 20.9851 8.77728 20.5597 8.77728 20.0127C8.77728 19.2834 9.32425 18.7364 9.99278 18.6756V18.0679C9.99278 17.7032 10.2359 17.4601 10.6005 17.4601C10.9652 17.4601 11.2083 17.7032 11.2083 18.0679V18.6756H11.816C12.1807 18.6756 12.4238 18.9187 12.4238 19.2834C12.4238 19.648 12.1807 19.8911 11.816 19.8911H10.1143C10.0536 19.8911 9.99278 19.9519 9.99278 20.0127C9.99278 20.0735 9.99278 20.1342 10.0536 20.1342Z" fill="white"/>
<path d="M11.2195 24L8.4174 21.6667V21H9.87573C10.2438 21 10.5616 20.9042 10.8291 20.7127C11.0966 20.5211 11.258 20.2836 11.3132 20H8.00073V19.3333H11.1882C11.0702 19.1389 10.8948 18.9792 10.662 18.8543C10.4292 18.7294 10.1671 18.6669 9.87573 18.6667H8.00073V18H13.0007V18.6667H11.6466C11.7438 18.7611 11.8306 18.8639 11.907 18.975C11.9834 19.0861 12.0424 19.2056 12.0841 19.3333H13.0007V20H12.157C12.1014 20.4722 11.8584 20.8681 11.4278 21.1877C10.9973 21.5072 10.4799 21.6669 9.87573 21.6667H9.57365L12.3757 24H11.2195Z" fill="#0280C0"/>
<path d="M15.7051 10.7751H5.43407L0.268197 24.4495C-0.218003 25.7866 -0.0356777 27.2452 0.754398 28.3999C1.54447 29.5546 2.88152 30.2232 4.27935 30.2232H16.8598C18.2576 30.2232 19.5947 29.5546 20.3847 28.3999C21.1748 27.2452 21.3571 25.7866 20.8709 24.4495L15.7051 10.7751ZM10.6 27.1844C7.25732 27.1844 4.52245 24.4495 4.52245 21.1069C4.52245 17.7643 7.25732 15.0294 10.6 15.0294C13.9426 15.0294 16.6775 17.7643 16.6775 21.1069C16.6775 24.4495 13.9426 27.1844 10.6 27.1844Z" fill="white"/>
<path d="M24.5788 8.40453C24.2141 8.40453 23.9103 8.52608 23.6064 8.70841L23.3633 8.52608C21.54 7.37136 19.4129 6.94593 17.3466 7.12826C18.9267 5.91276 20.8715 5.24423 22.8771 5.18346C23.1202 5.91276 23.7887 6.45973 24.6396 6.45973C25.6727 6.45973 26.4628 5.66966 26.4628 4.63648C26.4628 3.60331 25.6727 2.81323 24.6396 2.81323C23.9103 2.81323 23.2417 3.29943 22.9379 3.96796C20.6284 4.02873 18.4405 4.81881 16.6173 6.21663L15.4625 7.06748H5.73853V9.49848H15.4625V8.82996C17.8328 7.91833 20.5069 8.16143 22.6948 9.55926L22.8163 9.68081C22.7555 9.86313 22.6948 10.0455 22.6948 10.2886C22.6948 11.3217 23.4848 12.1118 24.518 12.1118C25.5512 12.1118 26.3413 11.3217 26.3413 10.2886C26.3413 9.25538 25.5512 8.40453 24.5788 8.40453Z" fill="white"/>
</svg>
